<?xml version="1.0" encoding="UTF-8" standalone="no"?><svg xmlns="http://www.w3.org/2000/svg" xmlns:xlink="http://www.w3.org/1999/xlink" contentScriptType="application/ecmascript" contentStyleType="text/css" height="741px" preserveAspectRatio="none" style="width:1117px;height:741px;" version="1.1" viewBox="0 0 1117 741" width="1117px" zoomAndPan="magnify"><defs><filter height="300%" id="f13s07mkalh8sh" width="300%" x="-1" y="-1"><feGaussianBlur result="blurOut" stdDeviation="2.0"/><feColorMatrix in="blurOut" result="blurOut2" type="matrix" values="0 0 0 0 0 0 0 0 0 0 0 0 0 0 0 0 0 0 .4 0"/><feOffset dx="4.0" dy="4.0" in="blurOut2" result="blurOut3"/><feBlend in="SourceGraphic" in2="blurOut3" mode="normal"/></filter></defs><g><!--class FrameLayout--><rect fill="#FEFECE" filter="url(#f13s07mkalh8sh)" height="48" id="FrameLayout" style="stroke: #A80036; stroke-width: 1.5;" width="105" x="563" y="8"/><ellipse cx="578" cy="24" fill="#ADD1B2" rx="11" ry="11" style="stroke: #A80036; stroke-width: 1.0;"/><path d="M580.4731,30.1431 Q579.8921,30.4419 579.2529,30.5913 Q578.6138,30.7407 577.9082,30.7407 Q575.4014,30.7407 574.0815,29.0889 Q572.7617,27.437 572.7617,24.3159 Q572.7617,21.1865 574.0815,19.5347 Q575.4014,17.8828 577.9082,17.8828 Q578.6138,17.8828 579.2612,18.0322 Q579.9087,18.1816 580.4731,18.4805 L580.4731,21.2031 Q579.8423,20.6221 579.2488,20.3523 Q578.6553,20.0825 578.0244,20.0825 Q576.6797,20.0825 575.9949,21.1492 Q575.3101,22.2158 575.3101,24.3159 Q575.3101,26.4077 575.9949,27.4744 Q576.6797,28.541 578.0244,28.541 Q578.6553,28.541 579.2488,28.2712 Q579.8423,28.0015 580.4731,27.4204 Z "/><text fill="#000000" font-family="sans-serif" font-size="12" lengthAdjust="spacingAndGlyphs" textLength="73" x="592" y="28.5352">FrameLayout</text><line style="stroke: #A80036; stroke-width: 1.5;" x1="564" x2="667" y1="40" y2="40"/><line style="stroke: #A80036; stroke-width: 1.5;" x1="564" x2="667" y1="48" y2="48"/><!--class GSYTextureRenderView--><rect fill="#FEFECE" filter="url(#f13s07mkalh8sh)" height="48" id="GSYTextureRenderView" style="stroke: #A80036; stroke-width: 1.5;" width="168" x="531.5" y="116"/><ellipse cx="546.5" cy="132" fill="#A9DCDF" rx="11" ry="11" style="stroke: #A80036; stroke-width: 1.0;"/><path d="M546.6133,127.5981 L545.4595,132.6699 L547.7754,132.6699 Z M545.1191,125.3569 L548.1157,125.3569 L551.4609,137.75 L549.0122,137.75 L548.2485,134.687 L544.9697,134.687 L544.2227,137.75 L541.7739,137.75 Z "/><text fill="#000000" font-family="sans-serif" font-size="12" font-style="italic" lengthAdjust="spacingAndGlyphs" textLength="136" x="560.5" y="136.5352">GSYTextureRenderView</text><line style="stroke: #A80036; stroke-width: 1.5;" x1="532.5" x2="698.5" y1="148" y2="148"/><line style="stroke: #A80036; stroke-width: 1.5;" x1="532.5" x2="698.5" y1="156" y2="156"/><!--class GSYVideoView--><rect fill="#FEFECE" filter="url(#f13s07mkalh8sh)" height="60.9551" id="GSYVideoView" style="stroke: #A80036; stroke-width: 1.5;" width="249" x="491" y="224"/><ellipse cx="570.25" cy="240" fill="#A9DCDF" rx="11" ry="11" style="stroke: #A80036; stroke-width: 1.0;"/><path d="M570.3633,235.5981 L569.2095,240.6699 L571.5254,240.6699 Z M568.8691,233.3569 L571.8657,233.3569 L575.2109,245.75 L572.7622,245.75 L571.9985,242.687 L568.7197,242.687 L567.9727,245.75 L565.5239,245.75 Z "/><text fill="#000000" font-family="sans-serif" font-size="12" font-style="italic" lengthAdjust="spacingAndGlyphs" textLength="82" x="590.75" y="244.5352">GSYVideoView</text><line style="stroke: #A80036; stroke-width: 1.5;" x1="492" x2="739" y1="256" y2="256"/><line style="stroke: #A80036; stroke-width: 1.5;" x1="492" x2="739" y1="264" y2="264"/><text fill="#000000" font-family="sans-serif" font-size="11" lengthAdjust="spacingAndGlyphs" textLength="237" x="497" y="278.6348">GSYVideoViewBridge getGSYVideoManager();</text><path d="M775.5,234 L775.5,250.5 L740.2314,254.5 L775.5,258.5 L775.5,274.6211 A0,0 0 0 0 775.5,274.6211 L1105.5,274.6211 A0,0 0 0 0 1105.5,274.6211 L1105.5,244 L1095.5,234 L775.5,234 A0,0 0 0 0 775.5,234 " fill="#FBFB77" filter="url(#f13s07mkalh8sh)" style="stroke: #A80036; stroke-width: 1.0;"/><path d="M1095.5,234 L1095.5,244 L1105.5,244 L1095.5,234 " fill="#FBFB77" style="stroke: #A80036; stroke-width: 1.0;"/><text fill="#000000" font-family="sans-serif" font-size="13" lengthAdjust="spacingAndGlyphs" textLength="309" x="781.5" y="251.5684">包含一个GSYVideoViewBridge当通过UI来改变播放器</text><text fill="#000000" font-family="sans-serif" font-size="13" lengthAdjust="spacingAndGlyphs" textLength="270" x="781.5" y="266.8789">状态通过调用GSYVideoViewBridge对应的方法</text><!--class GSYVideoControlView--><rect fill="#FEFECE" filter="url(#f13s07mkalh8sh)" height="48" id="GSYVideoControlView" style="stroke: #A80036; stroke-width: 1.5;" width="155" x="658" y="345"/><ellipse cx="673" cy="361" fill="#A9DCDF" rx="11" ry="11" style="stroke: #A80036; stroke-width: 1.0;"/><path d="M673.1133,356.5981 L671.9595,361.6699 L674.2754,361.6699 Z M671.6191,354.3569 L674.6157,354.3569 L677.9609,366.75 L675.5122,366.75 L674.7485,363.687 L671.4697,363.687 L670.7227,366.75 L668.2739,366.75 Z "/><text fill="#000000" font-family="sans-serif" font-size="12" font-style="italic" lengthAdjust="spacingAndGlyphs" textLength="123" x="687" y="365.5352">GSYVideoControlView</text><line style="stroke: #A80036; stroke-width: 1.5;" x1="659" x2="812" y1="377" y2="377"/><line style="stroke: #A80036; stroke-width: 1.5;" x1="659" x2="812" y1="385" y2="385"/><!--class GSYBaseVideoPlayer--><rect fill="#FEFECE" filter="url(#f13s07mkalh8sh)" height="48" id="GSYBaseVideoPlayer" style="stroke: #A80036; stroke-width: 1.5;" width="149" x="674" y="453"/><ellipse cx="689" cy="469" fill="#A9DCDF" rx="11" ry="11" style="stroke: #A80036; stroke-width: 1.0;"/><path d="M689.1133,464.5981 L687.9595,469.6699 L690.2754,469.6699 Z M687.6191,462.3569 L690.6157,462.3569 L693.9609,474.75 L691.5122,474.75 L690.7485,471.687 L687.4697,471.687 L686.7227,474.75 L684.2739,474.75 Z "/><text fill="#000000" font-family="sans-serif" font-size="12" font-style="italic" lengthAdjust="spacingAndGlyphs" textLength="117" x="703" y="473.5352">GSYBaseVideoPlayer</text><line style="stroke: #A80036; stroke-width: 1.5;" x1="675" x2="822" y1="485" y2="485"/><line style="stroke: #A80036; stroke-width: 1.5;" x1="675" x2="822" y1="493" y2="493"/><!--class GSYVideoPlayer--><rect fill="#FEFECE" filter="url(#f13s07mkalh8sh)" height="48" id="GSYVideoPlayer" style="stroke: #A80036; stroke-width: 1.5;" width="122" x="735.5" y="567.5"/><ellipse cx="750.5" cy="583.5" fill="#A9DCDF" rx="11" ry="11" style="stroke: #A80036; stroke-width: 1.0;"/><path d="M750.6133,579.0981 L749.4595,584.1699 L751.7754,584.1699 Z M749.1191,576.8569 L752.1157,576.8569 L755.4609,589.25 L753.0122,589.25 L752.2485,586.187 L748.9697,586.187 L748.2227,589.25 L745.7739,589.25 Z "/><text fill="#000000" font-family="sans-serif" font-size="12" font-style="italic" lengthAdjust="spacingAndGlyphs" textLength="90" x="764.5" y="588.0352">GSYVideoPlayer</text><line style="stroke: #A80036; stroke-width: 1.5;" x1="736.5" x2="856.5" y1="599.5" y2="599.5"/><line style="stroke: #A80036; stroke-width: 1.5;" x1="736.5" x2="856.5" y1="607.5" y2="607.5"/><!--class StandardGSYVideoPlayer--><rect fill="#FEFECE" filter="url(#f13s07mkalh8sh)" height="48" id="StandardGSYVideoPlayer" style="stroke: #A80036; stroke-width: 1.5;" width="174" x="730.5" y="682"/><ellipse cx="745.5" cy="698" fill="#ADD1B2" rx="11" ry="11" style="stroke: #A80036; stroke-width: 1.0;"/><path d="M747.9731,704.1431 Q747.3921,704.4419 746.7529,704.5913 Q746.1138,704.7407 745.4082,704.7407 Q742.9014,704.7407 741.5815,703.0889 Q740.2617,701.437 740.2617,698.3159 Q740.2617,695.1865 741.5815,693.5347 Q742.9014,691.8828 745.4082,691.8828 Q746.1138,691.8828 746.7612,692.0322 Q747.4087,692.1816 747.9731,692.4805 L747.9731,695.2031 Q747.3423,694.6221 746.7488,694.3523 Q746.1553,694.0825 745.5244,694.0825 Q744.1797,694.0825 743.4949,695.1492 Q742.8101,696.2158 742.8101,698.3159 Q742.8101,700.4077 743.4949,701.4744 Q744.1797,702.541 745.5244,702.541 Q746.1553,702.541 746.7488,702.2712 Q747.3423,702.0015 747.9731,701.4204 Z "/><text fill="#000000" font-family="sans-serif" font-size="12" lengthAdjust="spacingAndGlyphs" textLength="142" x="759.5" y="702.5352">StandardGSYVideoPlayer</text><line style="stroke: #A80036; stroke-width: 1.5;" x1="731.5" x2="903.5" y1="714" y2="714"/><line style="stroke: #A80036; stroke-width: 1.5;" x1="731.5" x2="903.5" y1="722" y2="722"/><!--class GSYVideoViewBridge--><rect fill="#FEFECE" filter="url(#f13s07mkalh8sh)" height="48" id="GSYVideoViewBridge" style="stroke: #A80036; stroke-width: 1.5;" width="151" x="446" y="345"/><ellipse cx="461" cy="361" fill="#B4A7E5" rx="11" ry="11" style="stroke: #A80036; stroke-width: 1.0;"/><path d="M457.4277,357.2651 L457.4277,355.1069 L464.8071,355.1069 L464.8071,357.2651 L462.3418,357.2651 L462.3418,365.3418 L464.8071,365.3418 L464.8071,367.5 L457.4277,367.5 L457.4277,365.3418 L459.8931,365.3418 L459.8931,357.2651 Z "/><text fill="#000000" font-family="sans-serif" font-size="12" font-style="italic" lengthAdjust="spacingAndGlyphs" textLength="119" x="475" y="365.5352">GSYVideoViewBridge</text><line style="stroke: #A80036; stroke-width: 1.5;" x1="447" x2="596" y1="377" y2="377"/><line style="stroke: #A80036; stroke-width: 1.5;" x1="447" x2="596" y1="385" y2="385"/><path d="M234,356.5 L234,381.8105 A0,0 0 0 0 234,381.8105 L411,381.8105 A0,0 0 0 0 411,381.8105 L411,374.5 L445.6118,369 L411,366.5 L411,366.5 L401,356.5 L234,356.5 A0,0 0 0 0 234,356.5 " fill="#FBFB77" filter="url(#f13s07mkalh8sh)" style="stroke: #A80036; stroke-width: 1.0;"/><path d="M401,356.5 L401,366.5 L411,366.5 L401,356.5 " fill="#FBFB77" style="stroke: #A80036; stroke-width: 1.0;"/><text fill="#000000" font-family="sans-serif" font-size="13" lengthAdjust="spacingAndGlyphs" textLength="156" x="240" y="374.0684">负责UI和播放器之间的交互</text><!--class GSYVideoBaseManager--><rect fill="#FEFECE" filter="url(#f13s07mkalh8sh)" height="48" id="GSYVideoBaseManager" style="stroke: #A80036; stroke-width: 1.5;" width="164" x="426.5" y="453"/><ellipse cx="441.5" cy="469" fill="#ADD1B2" rx="11" ry="11" style="stroke: #A80036; stroke-width: 1.0;"/><path d="M443.9731,475.1431 Q443.3921,475.4419 442.7529,475.5913 Q442.1138,475.7407 441.4082,475.7407 Q438.9014,475.7407 437.5815,474.0889 Q436.2617,472.437 436.2617,469.3159 Q436.2617,466.1865 437.5815,464.5347 Q438.9014,462.8828 441.4082,462.8828 Q442.1138,462.8828 442.7612,463.0322 Q443.4087,463.1816 443.9731,463.4805 L443.9731,466.2031 Q443.3423,465.6221 442.7488,465.3523 Q442.1553,465.0825 441.5244,465.0825 Q440.1797,465.0825 439.4949,466.1492 Q438.8101,467.2158 438.8101,469.3159 Q438.8101,471.4077 439.4949,472.4744 Q440.1797,473.541 441.5244,473.541 Q442.1553,473.541 442.7488,473.2712 Q443.3423,473.0015 443.9731,472.4204 Z "/><text fill="#000000" font-family="sans-serif" font-size="12" lengthAdjust="spacingAndGlyphs" textLength="132" x="455.5" y="473.5352">GSYVideoBaseManager</text><line style="stroke: #A80036; stroke-width: 1.5;" x1="427.5" x2="589.5" y1="485" y2="485"/><line style="stroke: #A80036; stroke-width: 1.5;" x1="427.5" x2="589.5" y1="493" y2="493"/><!--class GSYVideoManager--><rect fill="#FEFECE" filter="url(#f13s07mkalh8sh)" height="48" id="GSYVideoManager" style="stroke: #A80036; stroke-width: 1.5;" width="137" x="128" y="567.5"/><ellipse cx="143" cy="583.5" fill="#ADD1B2" rx="11" ry="11" style="stroke: #A80036; stroke-width: 1.0;"/><path d="M145.4731,589.6431 Q144.8921,589.9419 144.2529,590.0913 Q143.6138,590.2407 142.9082,590.2407 Q140.4014,590.2407 139.0815,588.5889 Q137.7617,586.937 137.7617,583.8159 Q137.7617,580.6865 139.0815,579.0347 Q140.4014,577.3828 142.9082,577.3828 Q143.6138,577.3828 144.2612,577.5322 Q144.9087,577.6816 145.4731,577.9805 L145.4731,580.7031 Q144.8423,580.1221 144.2488,579.8523 Q143.6553,579.5825 143.0244,579.5825 Q141.6797,579.5825 140.9949,580.6492 Q140.3101,581.7158 140.3101,583.8159 Q140.3101,585.9077 140.9949,586.9744 Q141.6797,588.041 143.0244,588.041 Q143.6553,588.041 144.2488,587.7712 Q144.8423,587.5015 145.4731,586.9204 Z "/><text fill="#000000" font-family="sans-serif" font-size="12" lengthAdjust="spacingAndGlyphs" textLength="105" x="157" y="588.0352">GSYVideoManager</text><line style="stroke: #A80036; stroke-width: 1.5;" x1="129" x2="264" y1="599.5" y2="599.5"/><line style="stroke: #A80036; stroke-width: 1.5;" x1="129" x2="264" y1="607.5" y2="607.5"/><!--class IPlayerManager--><rect fill="#FEFECE" filter="url(#f13s07mkalh8sh)" height="60.9551" id="IPlayerManager" style="stroke: #A80036; stroke-width: 1.5;" width="225" x="300" y="561"/><ellipse cx="364.25" cy="577" fill="#B4A7E5" rx="11" ry="11" style="stroke: #A80036; stroke-width: 1.0;"/><path d="M360.6777,573.2651 L360.6777,571.1069 L368.0571,571.1069 L368.0571,573.2651 L365.5918,573.2651 L365.5918,581.3418 L368.0571,581.3418 L368.0571,583.5 L360.6777,583.5 L360.6777,581.3418 L363.1431,581.3418 L363.1431,573.2651 Z "/><text fill="#000000" font-family="sans-serif" font-size="12" font-style="italic" lengthAdjust="spacingAndGlyphs" textLength="88" x="384.75" y="581.5352">IPlayerManager</text><line style="stroke: #A80036; stroke-width: 1.5;" x1="301" x2="524" y1="593" y2="593"/><line style="stroke: #A80036; stroke-width: 1.5;" x1="301" x2="524" y1="601" y2="601"/><text fill="#000000" font-family="sans-serif" font-size="11" lengthAdjust="spacingAndGlyphs" textLength="213" x="306" y="615.6348">void initVideoPlayer()//初始化视频播放器</text><!--class ICacheManager--><rect fill="#FEFECE" filter="url(#f13s07mkalh8sh)" height="48" id="ICacheManager" style="stroke: #A80036; stroke-width: 1.5;" width="120" x="560.5" y="567.5"/><ellipse cx="575.5" cy="583.5" fill="#B4A7E5" rx="11" ry="11" style="stroke: #A80036; stroke-width: 1.0;"/><path d="M571.9277,579.7651 L571.9277,577.6069 L579.3071,577.6069 L579.3071,579.7651 L576.8418,579.7651 L576.8418,587.8418 L579.3071,587.8418 L579.3071,590 L571.9277,590 L571.9277,587.8418 L574.3931,587.8418 L574.3931,579.7651 Z "/><text fill="#000000" font-family="sans-serif" font-size="12" font-style="italic" lengthAdjust="spacingAndGlyphs" textLength="88" x="589.5" y="588.0352">ICacheManager</text><line style="stroke: #A80036; stroke-width: 1.5;" x1="561.5" x2="679.5" y1="599.5" y2="599.5"/><line style="stroke: #A80036; stroke-width: 1.5;" x1="561.5" x2="679.5" y1="607.5" y2="607.5"/><!--class IjkPlayerManager--><rect fill="#FEFECE" filter="url(#f13s07mkalh8sh)" height="48" id="IjkPlayerManager" style="stroke: #A80036; stroke-width: 1.5;" width="131" x="6" y="682"/><ellipse cx="21" cy="698" fill="#ADD1B2" rx="11" ry="11" style="stroke: #A80036; stroke-width: 1.0;"/><path d="M23.4731,704.1431 Q22.8921,704.4419 22.2529,704.5913 Q21.6138,704.7407 20.9082,704.7407 Q18.4014,704.7407 17.0815,703.0889 Q15.7617,701.437 15.7617,698.3159 Q15.7617,695.1865 17.0815,693.5347 Q18.4014,691.8828 20.9082,691.8828 Q21.6138,691.8828 22.2612,692.0322 Q22.9087,692.1816 23.4731,692.4805 L23.4731,695.2031 Q22.8423,694.6221 22.2488,694.3523 Q21.6553,694.0825 21.0244,694.0825 Q19.6797,694.0825 18.9949,695.1492 Q18.3101,696.2158 18.3101,698.3159 Q18.3101,700.4077 18.9949,701.4744 Q19.6797,702.541 21.0244,702.541 Q21.6553,702.541 22.2488,702.2712 Q22.8423,702.0015 23.4731,701.4204 Z "/><text fill="#000000" font-family="sans-serif" font-size="12" lengthAdjust="spacingAndGlyphs" textLength="99" x="35" y="702.5352">IjkPlayerManager</text><line style="stroke: #A80036; stroke-width: 1.5;" x1="7" x2="136" y1="714" y2="714"/><line style="stroke: #A80036; stroke-width: 1.5;" x1="7" x2="136" y1="722" y2="722"/><!--class SystemPlayerManager--><rect fill="#FEFECE" filter="url(#f13s07mkalh8sh)" height="48" id="SystemPlayerManager" style="stroke: #A80036; stroke-width: 1.5;" width="157" x="172" y="682"/><ellipse cx="187" cy="698" fill="#ADD1B2" rx="11" ry="11" style="stroke: #A80036; stroke-width: 1.0;"/><path d="M189.4731,704.1431 Q188.8921,704.4419 188.2529,704.5913 Q187.6138,704.7407 186.9082,704.7407 Q184.4014,704.7407 183.0815,703.0889 Q181.7617,701.437 181.7617,698.3159 Q181.7617,695.1865 183.0815,693.5347 Q184.4014,691.8828 186.9082,691.8828 Q187.6138,691.8828 188.2612,692.0322 Q188.9087,692.1816 189.4731,692.4805 L189.4731,695.2031 Q188.8423,694.6221 188.2488,694.3523 Q187.6553,694.0825 187.0244,694.0825 Q185.6797,694.0825 184.9949,695.1492 Q184.3101,696.2158 184.3101,698.3159 Q184.3101,700.4077 184.9949,701.4744 Q185.6797,702.541 187.0244,702.541 Q187.6553,702.541 188.2488,702.2712 Q188.8423,702.0015 189.4731,701.4204 Z "/><text fill="#000000" font-family="sans-serif" font-size="12" lengthAdjust="spacingAndGlyphs" textLength="125" x="201" y="702.5352">SystemPlayerManager</text><line style="stroke: #A80036; stroke-width: 1.5;" x1="173" x2="328" y1="714" y2="714"/><line style="stroke: #A80036; stroke-width: 1.5;" x1="173" x2="328" y1="722" y2="722"/><!--class Exo2PlayerManager--><rect fill="#FEFECE" filter="url(#f13s07mkalh8sh)" height="48" id="Exo2PlayerManager" style="stroke: #A80036; stroke-width: 1.5;" width="146" x="364.5" y="682"/><ellipse cx="379.5" cy="698" fill="#ADD1B2" rx="11" ry="11" style="stroke: #A80036; stroke-width: 1.0;"/><path d="M381.9731,704.1431 Q381.3921,704.4419 380.7529,704.5913 Q380.1138,704.7407 379.4082,704.7407 Q376.9014,704.7407 375.5815,703.0889 Q374.2617,701.437 374.2617,698.3159 Q374.2617,695.1865 375.5815,693.5347 Q376.9014,691.8828 379.4082,691.8828 Q380.1138,691.8828 380.7612,692.0322 Q381.4087,692.1816 381.9731,692.4805 L381.9731,695.2031 Q381.3423,694.6221 380.7488,694.3523 Q380.1553,694.0825 379.5244,694.0825 Q378.1797,694.0825 377.4949,695.1492 Q376.8101,696.2158 376.8101,698.3159 Q376.8101,700.4077 377.4949,701.4744 Q378.1797,702.541 379.5244,702.541 Q380.1553,702.541 380.7488,702.2712 Q381.3423,702.0015 381.9731,701.4204 Z "/><text fill="#000000" font-family="sans-serif" font-size="12" lengthAdjust="spacingAndGlyphs" textLength="114" x="393.5" y="702.5352">Exo2PlayerManager</text><line style="stroke: #A80036; stroke-width: 1.5;" x1="365.5" x2="509.5" y1="714" y2="714"/><line style="stroke: #A80036; stroke-width: 1.5;" x1="365.5" x2="509.5" y1="722" y2="722"/><!--class ProxyCacheManager--><rect fill="#FEFECE" filter="url(#f13s07mkalh8sh)" height="48" id="ProxyCacheManager" style="stroke: #A80036; stroke-width: 1.5;" width="149" x="546" y="682"/><ellipse cx="561" cy="698" fill="#ADD1B2" rx="11" ry="11" style="stroke: #A80036; stroke-width: 1.0;"/><path d="M563.4731,704.1431 Q562.8921,704.4419 562.2529,704.5913 Q561.6138,704.7407 560.9082,704.7407 Q558.4014,704.7407 557.0815,703.0889 Q555.7617,701.437 555.7617,698.3159 Q555.7617,695.1865 557.0815,693.5347 Q558.4014,691.8828 560.9082,691.8828 Q561.6138,691.8828 562.2612,692.0322 Q562.9087,692.1816 563.4731,692.4805 L563.4731,695.2031 Q562.8423,694.6221 562.2488,694.3523 Q561.6553,694.0825 561.0244,694.0825 Q559.6797,694.0825 558.9949,695.1492 Q558.3101,696.2158 558.3101,698.3159 Q558.3101,700.4077 558.9949,701.4744 Q559.6797,702.541 561.0244,702.541 Q561.6553,702.541 562.2488,702.2712 Q562.8423,702.0015 563.4731,701.4204 Z "/><text fill="#000000" font-family="sans-serif" font-size="12" lengthAdjust="spacingAndGlyphs" textLength="117" x="575" y="702.5352">ProxyCacheManager</text><line style="stroke: #A80036; stroke-width: 1.5;" x1="547" x2="694" y1="714" y2="714"/><line style="stroke: #A80036; stroke-width: 1.5;" x1="547" x2="694" y1="722" y2="722"/><!--link FrameLayout to GSYTextureRenderView--><path d="M615.5,76.2911 C615.5,89.8171 615.5,104.1835 615.5,115.8436 " fill="none" id="FrameLayout-GSYTextureRenderView" style="stroke: #A80036; stroke-width: 1.0;"/><polygon fill="none" points="608.5001,76.2373,615.5,56.2373,622.5001,76.2373,608.5001,76.2373" style="stroke: #A80036; stroke-width: 1.0;"/><!--link GSYTextureRenderView to GSYVideoView--><path d="M615.5,184.2477 C615.5,197.5296 615.5,211.7972 615.5,223.9818 " fill="none" id="GSYTextureRenderView-GSYVideoView" style="stroke: #A80036; stroke-width: 1.0;"/><polygon fill="none" points="608.5001,184.003,615.5,164.003,622.5001,184.0029,608.5001,184.003" style="stroke: #A80036; stroke-width: 1.0;"/><!--link GSYVideoView to GSYVideoViewBridge--><path d="M581.7096,295.6596 C568.1952,312.1213 553.0949,330.5147 541.3973,344.7634 " fill="none" id="GSYVideoView-GSYVideoViewBridge" style="stroke: #A80036; stroke-width: 1.0;"/><polygon fill="#A80036" points="590.3097,285.1839,583.4109,287.2832,582.6954,294.4587,589.5941,292.3594,590.3097,285.1839" style="stroke: #A80036; stroke-width: 1.0;"/><!--link GSYVideoView to GSYVideoControlView--><path d="M662.3623,299.2145 C678.6208,314.7278 696.2327,331.5325 710.0992,344.7634 " fill="none" id="GSYVideoView-GSYVideoControlView" style="stroke: #A80036; stroke-width: 1.0;"/><polygon fill="none" points="657.2953,304.055,647.6578,285.1839,666.96,293.9261,657.2953,304.055" style="stroke: #A80036; stroke-width: 1.0;"/><!--link GSYVideoControlView to GSYBaseVideoPlayer--><path d="M740.8313,413.2911 C742.4595,426.8171 744.1888,441.1835 745.5923,452.8436 " fill="none" id="GSYVideoControlView-GSYBaseVideoPlayer" style="stroke: #A80036; stroke-width: 1.0;"/><polygon fill="none" points="733.8579,413.9306,738.4175,393.2373,747.7575,412.2574,733.8579,413.9306" style="stroke: #A80036; stroke-width: 1.0;"/><!--link GSYBaseVideoPlayer to GSYVideoPlayer--><path d="M766.393,519.6823 C773.1069,535.6976 780.5037,553.3423 786.2856,567.1343 " fill="none" id="GSYBaseVideoPlayer-GSYVideoPlayer" style="stroke: #A80036; stroke-width: 1.0;"/><polygon fill="none" points="759.8391,522.1541,758.5624,501.003,772.7504,516.7414,759.8391,522.1541" style="stroke: #A80036; stroke-width: 1.0;"/><!--link GSYVideoPlayer to StandardGSYVideoPlayer--><path d="M804.5234,635.2464 C807.4082,650.9756 810.5575,668.1471 813.0312,681.6343 " fill="none" id="GSYVideoPlayer-StandardGSYVideoPlayer" style="stroke: #A80036; stroke-width: 1.0;"/><polygon fill="none" points="797.6252,636.4376,800.9023,615.503,811.3955,633.912,797.6252,636.4376" style="stroke: #A80036; stroke-width: 1.0;"/><!--link GSYVideoViewBridge to GSYVideoBaseManager--><path d="M516.1687,413.2911 C514.5405,426.8171 512.8112,441.1835 511.4077,452.8436 " fill="none" id="GSYVideoViewBridge-GSYVideoBaseManager" style="stroke: #A80036; stroke-width: 1.0; stroke-dasharray: 7.0,7.0;"/><polygon fill="none" points="509.2425,412.2574,518.5825,393.2373,523.1421,413.9306,509.2425,412.2574" style="stroke: #A80036; stroke-width: 1.0;"/><!--link GSYVideoBaseManager to GSYVideoManager--><path d="M424.264,507.9135 C373.2995,526.6169 309.2686,550.1154 262.0874,567.4303 " fill="none" id="GSYVideoBaseManager-GSYVideoManager" style="stroke: #A80036; stroke-width: 1.0;"/><polygon fill="none" points="421.9073,501.322,443.0946,501.003,426.7307,514.4649,421.9073,501.322" style="stroke: #A80036; stroke-width: 1.0;"/><!--link GSYVideoBaseManager to ICacheManager--><path d="M541.1342,510.3627 C558.9013,528.5264 580.4921,550.5991 596.6663,567.1343 " fill="none" id="GSYVideoBaseManager-ICacheManager" style="stroke: #A80036; stroke-width: 1.0;"/><polygon fill="#A80036" points="531.9789,501.003,533.315,508.0892,540.37,509.5814,539.0339,502.4951,531.9789,501.003" style="stroke: #A80036; stroke-width: 1.0;"/><!--link GSYVideoBaseManager to IPlayerManager--><path d="M479.6537,511.4052 C466.4307,527.1764 450.8879,545.7144 438.0873,560.9818 " fill="none" id="GSYVideoBaseManager-IPlayerManager" style="stroke: #A80036; stroke-width: 1.0;"/><polygon fill="#A80036" points="488.3753,501.003,481.4552,503.0308,480.6655,510.1986,487.5856,508.1707,488.3753,501.003" style="stroke: #A80036; stroke-width: 1.0;"/><!--link ICacheManager to ProxyCacheManager--><path d="M620.5,635.5131 C620.5,651.1695 620.5,668.2233 620.5,681.6343 " fill="none" id="ICacheManager-ProxyCacheManager" style="stroke: #A80036; stroke-width: 1.0; stroke-dasharray: 7.0,7.0;"/><polygon fill="none" points="613.5001,635.503,620.5,615.503,627.5001,635.5029,613.5001,635.503" style="stroke: #A80036; stroke-width: 1.0;"/><!--link IPlayerManager to IjkPlayerManager--><path d="M302.3376,628.49 C247.814,646.7978 183.8391,668.2791 137.0838,683.9785 " fill="none" id="IPlayerManager-IjkPlayerManager" style="stroke: #A80036; stroke-width: 1.0; stroke-dasharray: 7.0,7.0;"/><polygon fill="none" points="300.3783,621.7639,321.5662,622.0335,304.8347,635.0357,300.3783,621.7639" style="stroke: #A80036; stroke-width: 1.0;"/><!--link IPlayerManager to SystemPlayerManager--><path d="M352.5368,633.8814 C329.5929,650.0979 304.2296,668.0244 284.5299,681.948 " fill="none" id="IPlayerManager-SystemPlayerManager" style="stroke: #A80036; stroke-width: 1.0; stroke-dasharray: 7.0,7.0;"/><polygon fill="none" points="348.7143,628.0112,369.087,622.1839,356.7948,639.4438,348.7143,628.0112" style="stroke: #A80036; stroke-width: 1.0;"/><!--link IPlayerManager to Exo2PlayerManager--><path d="M423.4716,641.7497 C426.5049,655.6422 429.6601,670.0931 432.2082,681.7634 " fill="none" id="IPlayerManager-Exo2PlayerManager" style="stroke: #A80036; stroke-width: 1.0; stroke-dasharray: 7.0,7.0;"/><polygon fill="none" points="416.627,643.2168,419.1995,622.1839,430.3048,640.2303,416.627,643.2168" style="stroke: #A80036; stroke-width: 1.0;"/><!--
@startuml
class FrameLayout
abstract class GSYTextureRenderView
abstract class GSYVideoView{
    GSYVideoViewBridge getGSYVideoManager();
}
note right:包含一个GSYVideoViewBridge当通过UI来改变播放器\n状态通过调用GSYVideoViewBridge对应的方法
abstract class GSYVideoControlView
abstract class GSYBaseVideoPlayer
abstract class GSYVideoPlayer
class StandardGSYVideoPlayer
interface GSYVideoViewBridge
note left:负责UI和播放器之间的交互 
class GSYVideoBaseManager
class GSYVideoManager 
interface IPlayerManager{
    void initVideoPlayer()//初始化视频播放器
}
interface ICacheManager
class IjkPlayerManager
class SystemPlayerManager
class Exo2PlayerManager
class ProxyCacheManager
FrameLayout <|- - GSYTextureRenderView
GSYTextureRenderView <|- - GSYVideoView
GSYVideoView *- - GSYVideoViewBridge
GSYVideoView <|- - GSYVideoControlView
GSYVideoControlView <|- - GSYBaseVideoPlayer
GSYBaseVideoPlayer <|- - GSYVideoPlayer
GSYVideoPlayer <|- - StandardGSYVideoPlayer
GSYVideoViewBridge <|.. GSYVideoBaseManager
GSYVideoBaseManager <|- - GSYVideoManager
GSYVideoBaseManager *- - ICacheManager
GSYVideoBaseManager *- - IPlayerManager
ICacheManager <|.. ProxyCacheManager
IPlayerManager <|.. IjkPlayerManager
IPlayerManager <|.. SystemPlayerManager
IPlayerManager <|.. Exo2PlayerManager
@enduml

PlantUML version 1.2019.03(Sun Mar 10 19:04:44 CST 2019)
(GPL source distribution)
Java Runtime: Java(TM) SE Runtime Environment
JVM: Java HotSpot(TM) 64-Bit Server VM
Java Version: 1.8.0_92-b14
Operating System: Mac OS X
OS Version: 10.14.4
Default Encoding: UTF-8
Language: zh
Country: CN
--></g></svg>